Coordinates
version=1
nRows=16
nColumns=38
inDegrees=no

Units are S.I. units (second, meters, Newtons, ...)
If the header above contains a line with 'inDegrees', this indicates whether rotational values are in degrees (yes) or radians (no).

endheader
time	pelvis_tilt	pelvis_list	pelvis_rotation	pelvis_tx	pelvis_ty	pelvis_tz	hip_flexion_r	hip_adduction_r	hip_rotation_r	knee_angle_r	ankle_angle_r	subtalar_angle_r	mtp_angle_r	hip_flexion_l	hip_adduction_l	hip_rotation_l	knee_angle_l	ankle_angle_l	subtalar_angle_l	mtp_angle_l	lumbar_extension	lumbar_bending	lumbar_rotation	arm_flex_r	arm_add_r	arm_rot_r	elbow_flex_r	pro_sup_r	wrist_flex_r	wrist_dev_r	arm_flex_l	arm_add_l	arm_rot_l	elbow_flex_l	pro_sup_l	wrist_flex_l	wrist_dev_l
0	0.0652171	-0.00218265	-3.01902	-0.331709	0.961161	0.0325297	0.246465	-0.206205	-0.355939	0.43287	0.188661	0	0	0.317704	-0.0447142	0.0659172	0.469808	0.236473	0	0	-0.108636	0.0337582	-0.0837458	0.296264	-0.302101	1.54371	0.516855	0.33848	0	0	0.358678	-0.250716	1.43587	0.59949	0.540337	0	0
0.00997596	0.0691957	-0.00431523	-3.01874	-0.330232	0.958733	0.0328976	0.261226	-0.214548	-0.357466	0.452592	0.196523	0	0	0.331797	-0.0434028	0.0614565	0.486574	0.242786	0	0	-0.108289	0.0319233	-0.0858389	0.308738	-0.304461	1.5341	0.530763	0.35551	0	0	0.369281	-0.252145	1.42835	0.613237	0.555511	0	0
0.0199519	0.0732239	-0.00645975	-3.01845	-0.328754	0.9563	0.0332664	0.276053	-0.22292	-0.358977	0.472331	0.204384	0	0	0.345966	-0.0420748	0.0569958	0.503373	0.249099	0	0	-0.107892	0.0300775	-0.0878999	0.321166	-0.30685	1.52434	0.544721	0.372617	0	0	0.379923	-0.253543	1.42097	0.62697	0.570582	0	0
0.0299279	0.0773705	-0.00863425	-3.01814	-0.327276	0.953854	0.0336372	0.291038	-0.231362	-0.360441	0.492105	0.212241	0	0	0.360307	-0.0407034	0.0525426	0.520241	0.25541	0	0	-0.107366	0.0282052	-0.0898843	0.333479	-0.309308	1.51424	0.558789	0.389909	0	0	0.390651	-0.254871	1.41391	0.640672	0.58542	0	0
0.0399038	0.0817103	-0.0108624	-3.01781	-0.325797	0.951387	0.0340105	0.306283	-0.239914	-0.361807	0.511933	0.22009	0	0	0.374917	-0.0392539	0.0481097	0.537206	0.261711	0	0	-0.106621	0.0262863	-0.091749	0.345607	-0.311866	1.50365	0.573026	0.407485	0	0	0.401491	-0.256095	1.40732	0.654332	0.599925	0	0
0.0498798	0.086312	-0.0131727	-3.01746	-0.324318	0.94889	0.0343858	0.321888	-0.248618	-0.363003	0.531839	0.227924	0	0	0.38987	-0.037687	0.0437067	0.554276	0.267992	0	0	-0.105565	0.0242943	-0.0934473	0.357494	-0.31455	1.4925	0.587485	0.425409	0	0	0.412454	-0.257189	1.40131	0.667947	0.614028	0	0
0.0598558	0.0912254	-0.0155957	-3.01711	-0.322837	0.946358	0.0347605	0.337942	-0.257501	-0.363937	0.551845	0.235736	0	0	0.405202	-0.0359688	0.0393272	0.571437	0.274243	0	0	-0.104126	0.0221985	-0.094924	0.369101	-0.317389	1.48081	0.602228	0.443707	0	0	0.423536	-0.258136	1.39594	0.681528	0.627704	0	0
0.0698317	0.0964671	-0.0181563	-3.01682	-0.321354	0.943786	0.03513	0.354496	-0.266567	-0.364498	0.571958	0.243514	0	0	0.420897	-0.0340815	0.0349466	0.58865	0.280453	0	0	-0.102273	0.0199701	-0.096116	0.380406	-0.320408	1.4686	0.617324	0.462357	0	0	0.434727	-0.258929	1.39123	0.695107	0.640962	0	0
0.0798077	0.102015	-0.020868	-3.01663	-0.319867	0.941174	0.0354871	0.371554	-0.275785	-0.364569	0.592165	0.251239	0	0	0.43689	-0.0320311	0.03053	0.605867	0.286619	0	0	-0.100025	0.0175887	-0.0969589	0.391406	-0.323631	1.45593	0.632857	0.481303	0	0	0.446009	-0.259581	1.38713	0.708738	0.65385	0	0
0.0897837	0.1078	-0.0237257	-3.01662	-0.318373	0.938529	0.0358222	0.38906	-0.285083	-0.364037	0.612428	0.258893	0	0	0.453063	-0.0298566	0.0260368	0.623038	0.29274	0	0	-0.0974647	0.015053	-0.0973963	0.402129	-0.327076	1.44288	0.648908	0.500478	0	0	0.457358	-0.26012	1.38352	0.722505	0.666442	0	0
0.0997596	0.113703	-0.0266979	-3.01685	-0.316869	0.935856	0.0361234	0.406888	-0.294335	-0.362795	0.632679	0.266448	0	0	0.46925	-0.0276408	0.0214225	0.640115	0.298822	0	0	-0.09474	0.0123901	-0.0973778	0.412638	-0.33075	1.42953	0.665556	0.519808	0	0	0.468749	-0.260593	1.38023	0.736508	0.67883	0	0
0.109736	0.119551	-0.0297209	-3.01743	-0.315351	0.933168	0.0363768	0.424848	-0.303357	-0.360744	0.65282	0.273865	0	0	0.485236	-0.0255181	0.0166374	0.657064	0.304879	0	0	-0.0920717	0.00966211	-0.0968546	0.423038	-0.334653	1.41598	0.682869	0.539177	0	0	0.480158	-0.261059	1.37706	0.75086	0.6911	0	0
0.119712	0.12513	-0.0326989	-3.01845	-0.313814	0.930479	0.0365675	0.4427	-0.311902	-0.357788	0.672729	0.281095	0	0	0.500769	-0.023675	0.0116242	0.673859	0.310929	0	0	-0.0897376	0.00696264	-0.0957704	0.43347	-0.338767	1.40237	0.700903	0.558414	0	0	0.491573	-0.261584	1.37376	0.765677	0.703307	0	0
0.129688	0.1302	-0.0355111	-3.02006	-0.312252	0.927804	0.0366809	0.460176	-0.319681	-0.353827	0.692275	0.288078	0	0	0.515577	-0.0223422	0.00631122	0.690482	0.316994	0	0	-0.0880544	0.00440631	-0.094052	0.444098	-0.343064	1.38884	0.719688	0.577329	0	0	0.502996	-0.262236	1.37012	0.781063	0.71546	0	0
0.139663	0.134515	-0.038023	-3.02242	-0.310661	0.925158	0.0367032	0.477012	-0.326376	-0.348757	0.711331	0.294746	0	0	0.529379	-0.0217804	0.000606494	0.706923	0.323102	0	0	-0.0873546	0.0021136	-0.0915987	0.455103	-0.347509	1.37553	0.73923	0.595769	0	0	0.51445	-0.263072	1.36593	0.797109	0.727512	0	0
0.149639	0.137837	-0.0400974	-3.02569	-0.309033	0.922552	0.0366238	0.492964	-0.331668	-0.342477	0.72978	0.301031	0	0	0.541905	-0.0222599	-0.00559433	0.723172	0.329274	0	0	-0.0879633	0.000199504	-0.0882851	0.466662	-0.352065	1.36258	0.75951	0.61362	0	0	0.525983	-0.264134	1.36107	0.813874	0.739365	0	0
